<svg width="32" height="16" viewBox="0 0 32 16" fill="none" xmlns="http://www.w3.org/2000/svg">
<path d="M14.6891 14.6906C14.8984 14.6146 15.1248 14.5935 15.3458 14.6262C17.4092 14.9336 27.2678 16.2864 30.2364 14.568C31.5383 13.8141 31.0018 8.39354 29.9223 6.25703C29.2611 4.94827 27.9304 3.78042 27.0759 3.19476C25.976 2.44064 24.3962 1.75466 21.6911 1.50445C21.6911 1.50445 21.6785 0.59841 20.8129 0.51201C19.9472 0.42561 19.6891 1.27801 19.6891 1.27801C19.6891 1.27801 15.1646 0.805422 12.2601 2.95092C9.94068 4.66414 9.06304 8.87193 8.71479 10.5132C8.63365 10.8962 8.2878 11.1725 7.88386 11.1766C6.1118 11.1943 1.70352 11.2047 1.19059 12.3645C0.639027 13.6123 1.46008 14.278 1.46008 14.278C1.46008 14.278 2.62788 15.7019 8.2872 15.483C12.461 15.3215 14.1103 14.9005 14.6885 14.6906H14.6891Z" stroke="black" stroke-miterlimit="10"/>
</svg>
